<?xml version="1.0" encoding="UTF-8" standalone="no"?>
<!DOCTYPE svg PUBLIC "-//W3C//DTD SVG 1.1//EN" "http://www.w3.org/Graphics/SVG/1.1/DTD/svg11.dtd">
<!-- Created with Vectornator (http://vectornator.io/) -->
<svg height="100%" stroke-miterlimit="10" style="fill-rule:nonzero;clip-rule:evenodd;stroke-linecap:round;stroke-linejoin:round;" version="1.1" viewBox="0 0 999.2 620.526" width="100%" xml:space="preserve" xmlns="http://www.w3.org/2000/svg" xmlns:vectornator="http://vectornator.io" xmlns:xlink="http://www.w3.org/1999/xlink">
<defs/>
<g id="Sans-titre" vectornator:layerName="Sans titre">
<g opacity="1">
<path d="M364 66.1L634.4 66.1L634.4 66.1L634.4 551.9L634.4 551.9L364 551.9L364 551.9L364 66.1L364 66.1Z" fill="#ff5a00" fill-rule="nonzero" opacity="1" stroke="none"/>
<path d="M382 309C382 210.3 428.4 122.7 499.6 66.1C447.2 24.9 381.1 0 309 0C138.2 0 0 138.2 0 309C0 479.8 138.2 618 309 618C381.1 618 447.2 593.1 499.6 551.9C428.3 496.1 382 407.7 382 309Z" fill="#eb001b" fill-rule="nonzero" opacity="1" stroke="none"/>
<path d="M999.2 309C999.2 479.8 861 618 690.2 618C618.1 618 552 593.1 499.6 551.9C571.7 495.2 617.2 407.7 617.2 309C617.2 210.3 570.8 122.7 499.6 66.1C551.9 24.9 618 0 690.1 0C861 0 999.2 139.1 999.2 309Z" fill="#f79e1b" fill-rule="nonzero" opacity="1" stroke="none"/>
</g>
</g>
</svg>
