<?xml version="1.0" encoding="UTF-8" standalone="no"?>
<!DOCTYPE svg PUBLIC "-//W3C//DTD SVG 1.1//EN" "http://www.w3.org/Graphics/SVG/1.1/DTD/svg11.dtd">
<!-- Created with Vectornator (http://vectornator.io/) -->
<svg height="100%" stroke-miterlimit="10" style="fill-rule:nonzero;clip-rule:evenodd;stroke-linecap:round;stroke-linejoin:round;" version="1.1" viewBox="0 0 256.352 254.575" width="100%" xml:space="preserve" xmlns="http://www.w3.org/2000/svg" xmlns:vectornator="http://vectornator.io" xmlns:xlink="http://www.w3.org/1999/xlink">
<defs/>
<g id="Sans-titre" vectornator:layerName="Sans titre">
<g opacity="1">
<path d="M128.584 253.804L164.06 54.2846C197.875 54.2846 208.541 57.9926 210.081 73.1276C210.081 73.1276 232.765 64.6696 244.206 47.4916C199.56 26.8036 154.701 25.8706 154.701 25.8706L128.525 57.7526L128.584 57.7486L102.408 25.8656C102.408 25.8656 57.5477 26.7996 12.9077 47.4876C24.3387 64.6656 47.0317 73.1236 47.0317 73.1236C48.5807 57.9876 59.2337 54.2796 92.8217 54.2556L128.584 253.804" fill="#e82127" fill-rule="nonzero" opacity="1" stroke="none"/>
<path d="M128.57 16.6616C164.66 16.3856 205.969 22.2446 248.257 40.6756C253.909 30.5026 255.362 26.0066 255.362 26.0066C209.135 7.71764 165.844 1.45864 128.565 1.30164C91.2877 1.45864 47.9987 7.71864 1.77766 26.0066C1.77766 26.0066 3.83966 31.5446 8.87766 40.6756C51.1577 22.2446 92.4737 16.3856 128.565 16.6616L128.57 16.6616" fill="#e82127" fill-rule="nonzero" opacity="1" stroke="none"/>
</g>
</g>
</svg>
